D:\school\WTK\thesis\model\3dpredictsim\Results\Batchsim_tmt_linear_v2\Pog_s1_tmt_aCst_d02_k2000_ig24_pas_GRF.mot
nRows=12
nColumns=19

name D:\school\WTK\thesis\model\3dpredictsim\Results\Batchsim_tmt_linear_v2\Pog_s1_tmt_aCst_d02_k2000_ig24_pas_GRF.mot
datacolumns 19
datarows 12
range 0.5364884691 0.6545159323
endheader
time 	ground_force_vx	ground_force_vy	ground_force_vz	ground_force_px	ground_force_py	ground_force_pz	1_ground_force_vx	1_ground_force_vy	1_ground_force_vz	1_ground_force_px	1_ground_force_py	1_ground_force_pz	ground_torque_x	ground_torque_y	ground_torque_z	1_ground_torque_x	1_ground_torque_y	1_ground_torque_z
        0.5364884691	      125.2486860510	      522.8883423929	       -4.6350186738	        0.3245897607	        0.0000000000	        0.0492039817	      -61.0574919935	       42.3144522913	      -10.2264019858	        0.8310398825	        0.0000000000	       -0.0471373762	        0.0000000000	        0.0000000000	        0.0000000000	        0.0000000000	        0.0000000000	        0.0000000000	
        0.5472182385	       99.1372303038	      435.1050864064	        0.4747963464	        0.3347371031	        0.0000000000	        0.0478711594	     -112.9737098967	       96.4745623908	      -25.3902877481	        0.8416674003	        0.0000000000	       -0.0453078707	        0.0000000000	        0.0000000000	        0.0000000000	        0.0000000000	        0.0000000000	        0.0000000000	
        0.5579480079	       64.6575442188	      333.2214591801	        6.3040549622	        0.3510765137	        0.0000000000	        0.0453639188	     -114.4342418736	      208.8060529578	      -48.0293901798	        0.8486680001	        0.0000000000	       -0.0443544882	        0.0000000000	        0.0000000000	        0.0000000000	        0.0000000000	        0.0000000000	        0.0000000000	
        0.5686777772	       30.0668023287	      235.0344274234	        5.8640657367	        0.3763602855	        0.0000000000	        0.0409460228	      -60.7402493481	      381.2527453857	       -7.3346086407	        0.8536643080	        0.0000000000	       -0.0436206385	        0.0000000000	        0.0000000000	        0.0000000000	        0.0000000000	        0.0000000000	        0.0000000000	
        0.5794075466	        6.8210046148	      160.5475065069	        8.8497003420	        0.4069142189	        0.0000000000	        0.0336865898	      -72.8818175533	      593.6047517306	        7.0058657469	        0.8622249688	        0.0000000000	       -0.0458365812	        0.0000000000	        0.0000000000	        0.0000000000	        0.0000000000	        0.0000000000	        0.0000000000	
        0.5901373160	       -1.2254131382	      133.8261860802	       12.3374166325	        0.4107824816	        0.0000000000	        0.0326609140	     -111.3861896833	      798.7161795352	       14.6510024642	        0.8707187999	        0.0000000000	       -0.0483971266	        0.0000000000	        0.0000000000	        0.0000000000	        0.0000000000	        0.0000000000	        0.0000000000	
        0.6008670854	       -2.1811411848	      100.8646558221	       14.2283230154	        0.4113633772	        0.0000000000	        0.0328862676	     -127.2239441338	      901.0126152946	       18.0823543135	        0.8764688401	        0.0000000000	       -0.0499802575	        0.0000000000	        0.0000000000	        0.0000000000	        0.0000000000	        0.0000000000	        0.0000000000	
        0.6115968548	       -5.2354902935	       64.4988542557	       13.2758692526	        0.4118123180	        0.0000000000	        0.0330144624	     -123.9061012301	      906.2608952557	       18.4096158834	        0.8806715881	        0.0000000000	       -0.0510137126	        0.0000000000	        0.0000000000	        0.0000000000	        0.0000000000	        0.0000000000	        0.0000000000	
        0.6223266241	       -9.2826619444	       26.5673071267	        6.5813639602	        0.4114216562	        0.0000000000	        0.0326619675	     -113.6041080101	      869.2867076198	       17.8578957762	        0.8843037984	        0.0000000000	       -0.0517613504	        0.0000000000	        0.0000000000	        0.0000000000	        0.0000000000	        0.0000000000	        0.0000000000	
        0.6330563935	        0.1706582243	       -0.1694885881	       -0.0146673802	        0.0000000000	        0.0000000000	        0.0000000000	     -101.1342071167	      830.5040036911	       16.1982259416	        0.8881445969	        0.0000000000	       -0.0523965428	        0.0000000000	        0.0000000000	        0.0000000000	        0.0000000000	        0.0000000000	        0.0000000000	
        0.6437861629	        0.0007254310	       -0.0005931806	        0.0000019088	        0.0000000000	        0.0000000000	        0.0000000000	      -92.2953121764	      805.5089045585	       17.2246195079	        0.8932859217	        0.0000000000	       -0.0530579140	        0.0000000000	        0.0000000000	        0.0000000000	        0.0000000000	        0.0000000000	        0.0000000000	
        0.6545159323	        0.0002917027	       -0.0002073699	        0.0000066748	        0.0000000000	        0.0000000000	        0.0000000000	      -85.1729933235	      782.7028394113	       17.2145210384	        0.8994650829	        0.0000000000	       -0.0532737432	        0.0000000000	        0.0000000000	        0.0000000000	        0.0000000000	        0.0000000000	        0.0000000000	
